<svg id="Layer_1" data-name="Layer 1" xmlns="http://www.w3.org/2000/svg" xmlns:xlink="http://www.w3.org/1999/xlink" viewBox="0 0 487.53 553.26"><defs><style>.cls-1{fill:none;}.cls-2{clip-path:url(#clip-path);}.cls-3{opacity:0.5;}.cls-4{clip-path:url(#clip-path-3);}.cls-5{fill:#f15a29;}.cls-6{fill:#c64327;}.cls-7{fill:#f68e66;}</style><clipPath id="clip-path" transform="translate(-311.84 -237.45)"><rect class="cls-1" width="1080" height="1080"/></clipPath><clipPath id="clip-path-3" transform="translate(-311.84 -237.45)"><rect class="cls-1" x="312.63" y="236.45" width="487.56" height="561.25"/></clipPath></defs><title>logosvg</title><g class="cls-2"><g class="cls-4"><g class="cls-4"><path class="cls-5" d="M785.78,468.53c11.45,26.65,14.58,58,13.34,86.72A252,252,0,0,1,781.24,638c-21.33,53.23-60.31,98.82-111.53,125.23-52.38,27-114.47,34.33-171.81,21C441.23,771.08,392,737,358.43,689.67c-33-46.41-50.26-104-45.93-161a2.65,2.65,0,0,1,.06-.3,2.54,2.54,0,0,1,2.12-2.61,257.34,257.34,0,0,1,52.53-6.24c57.81-.79,115.63,18.13,160.37,54.79a79.83,79.83,0,0,0-49.21-39.46c-3.25-.89-2.67-5.92.73-5.9a251.11,251.11,0,0,1,125.11,34,102.94,102.94,0,0,0-30.09-26.85c-2.49-1.46-1.61-5.69,1.44-5.6,37.59,1.08,76.31-3.59,111.08-18.57a202.15,202.15,0,0,0,81.56-65.09,3,3,0,0,1,5.18-.06,114.39,114.39,0,0,1,12.4,21.75m-3.43,148.4a243.11,243.11,0,0,0,10.8-81.53c-1.18-28.42-6.67-57.93-22.47-82a205,205,0,0,1-29.52,31c-1.95,1.67-3.95,3.28-5.95,4.88a3.4,3.4,0,0,1-.17.72c-11.3,30.14-23,60.57-43.94,85.54a315.32,315.32,0,0,1-35.32,35.64q-4.77,4.13-9.8,7.87a199.22,199.22,0,0,0,51.48-32.2,3,3,0,0,1,4.75,3.59,174.19,174.19,0,0,1-100.43,85c13.37,1.18,27.2-2.08,39.9-5.82a187,187,0,0,0,47.1-21.4c2.63-1.66,5.5,1.49,4.16,4.06-7.92,15.06-20.25,26.93-34.07,36.61C609.58,723.4,546.12,737,486.63,730c12.09,7.19,27,9.76,40.6,12.12a329.81,329.81,0,0,0,195.69-26.38,3.2,3.2,0,0,1,1.34-.3,245.32,245.32,0,0,0,58.09-98.48m-95.54-45.59c18.49-22.07,29.52-48.76,39.62-75.44a203.46,203.46,0,0,1-56.2,28.44,2.62,2.62,0,0,1-.19,1,136.19,136.19,0,0,1-22.61,38.75A137.67,137.67,0,0,1,582,607.7c-29.52,8.9-60.56,6.17-91,6.16A139.31,139.31,0,0,0,565.64,628c3.52-.31,3.92,4.88.86,5.88C516,650.6,459.28,645.14,412.79,619.51c22.63,37.6,65.67,61.35,109.81,59.46,3.67-.16,3.75,4.68.87,5.88-23.73,9.88-49.73,10.61-75.06,9.65q-20.51-.76-41-2.8c-6.58-.65-13.14-1.36-19.23-3.44A226,226,0,0,0,488,773.67a2.35,2.35,0,0,1,1.57,2.14A233.16,233.16,0,0,0,519,782.14c56.85,8.36,117-3.44,165.57-34.37A219.14,219.14,0,0,0,712,727.07a331.81,331.81,0,0,1-41.29,14.17,337.15,337.15,0,0,1-103.9,11.23,332.14,332.14,0,0,1-51.51-6.56c-15-3.15-30.43-7.39-41.77-18.37-2.31-2.23.06-5.51,2.87-5a248.46,248.46,0,0,0,53,3,251.7,251.7,0,0,0,89.75-21.37c22.9-10.22,47-23.92,62.07-44.55a191,191,0,0,1-39.63,16.29c-17.07,4.84-36,8.65-53.36,3-2.65-.87-3.1-5-.06-5.79A168.25,168.25,0,0,0,689,601.17a206.64,206.64,0,0,1-71.73,34c-3.8,1-5.23-4.42-1.67-5.77,14.68-5.56,27.44-14.81,39.05-25.23a325.25,325.25,0,0,0,32.12-32.82m-70.2,12.93a131.27,131.27,0,0,0,46.55-57.79c-25.1,7.15-51.23,10.15-77.3,10.16a108.62,108.62,0,0,1,30.84,34.45c1.41,2.47-1.44,5.86-4.05,4.14a245.37,245.37,0,0,0-115.93-39.57,86,86,0,0,1,41.63,48.63c1,3-2.87,4.92-5,3a224.59,224.59,0,0,0-41.94-30.54c-52.07-29.4-114.76-38.14-173.1-25.62-.4,6.06-.59,12.12-.52,18.19.74,55.37,22,110.13,57.47,152.48a231.36,231.36,0,0,0,79.86,61.28,231.62,231.62,0,0,1-77.57-80.78c-1.8-3.16,2.11-5.66,4.68-3.68,9.19,7.1,22.66,6.95,33.69,7.9q18,1.54,36,2.13c17.93.56,36.06.07,53.41-4.19-43.45-4.38-83.88-31.79-102.92-71.45-1.2-2.5,1.3-5.89,4.06-4.15a189.09,189.09,0,0,0,135.18,25.29,144.9,144.9,0,0,1-63.61-20.53,3,3,0,0,1,1.46-5.6c18.92-.56,37.83.6,56.76.11,28.94-.76,56.31-7.16,80.33-23.84" transform="translate(-311.84 -237.45)"/><path class="cls-6" d="M793.15,535.4a246.75,246.75,0,0,1-68.89,180,3.2,3.2,0,0,0-1.34.3,329.73,329.73,0,0,1-195.69,26.38c-13.57-2.36-28.51-4.93-40.6-12.12,59.49,7.06,123-6.57,172.24-41.05,13.82-9.68,26.15-21.55,34.06-36.61,1.35-2.57-1.52-5.72-4.15-4.06a187,187,0,0,1-47.1,21.4c-12.7,3.74-26.53,7-39.9,5.82a174.19,174.19,0,0,0,100.43-85,3,3,0,0,0-4.75-3.59A199.22,199.22,0,0,1,646,619.05q5-3.74,9.8-7.87a315.32,315.32,0,0,0,35.32-35.64c20.92-25,32.64-55.4,43.94-85.54a3.4,3.4,0,0,0,.17-.72c2-1.6,4-3.21,5.95-4.88a205,205,0,0,0,29.52-31c15.8,24,21.29,53.55,22.47,82" transform="translate(-311.84 -237.45)"/><path class="cls-5" d="M763.74,370.14c.55-.06,2.89-.38,3.94.91a3.14,3.14,0,0,1,.47,2.48C767,379.35,766,385.2,764.88,391c-3.86,31.34-21.85,59.38-46,79.37-24.76,20.51-55,33.06-85.58,42-16.68,4.85-33.69,8.84-51.16,8.87-17.93,0-35.72-3.25-53.36-6.16-68.27-11.23-138.84-25-208-13.61a3.48,3.48,0,0,1-1.12,0,2.62,2.62,0,0,1-2.67-2.88c0-.17,0-.34,0-.51a2.29,2.29,0,0,1,0-.25c1.42-21.81,11.92-41.3,24.78-58.55,6-8,12.36-15.63,18.64-23.36,3.67-4.51,7.3-9,10.75-13.74,3.05-4.15,6.28-8.41,6.94-13.66.7-5.7-.85-11.68-1.61-17.31-.7-5.2-1.33-10.41-1.84-15.64a238.69,238.69,0,0,1-1-32.43c1.08-32.29,19.12-85.86,35.15-85.67a12.52,12.52,0,0,1,6.7,2.29c5.53,4,5.68,11.59,6.77,18.23a79.28,79.28,0,0,0,10.16,25.93c10.8,17.36,28.45,24.13,32.52,25.55,9.26,3.23,11.17,3.12,42.65,2.5a185,185,0,0,1,39.17,3.21,138,138,0,0,1,36.68,12.7c18.34,9.42,21.4,16.55,33.44,24.38C616.94,352.24,661.33,381.13,763.74,370.14Zm-4,15.51c.51-.82.68-3.36.73-4a20.62,20.62,0,0,1,.74-4,150.29,150.29,0,0,1-81.12,8.72c-26.82-4.45-50.74-16.24-71.69-33.34-12.29-10-24.41-19.36-39.29-25.23a146.43,146.43,0,0,0-42.23-9.35c-15.41-1.2-30.72,1-46.09.19a58.55,58.55,0,0,1-34-13c-12.39-9.93-18.32-21.62-21.66-28.58a95.16,95.16,0,0,1-8.82-31.57,104.1,104.1,0,0,0-27.76,36.7c-11.3,25.37-9.25,50.62-9,58,.43,10.91,1.64,21.76,3.13,32.57,1.22,8.86,2.85,17.15-1.68,25.37s-11.12,15.46-17,22.64c-6.54,8-13.22,16-19.28,24.38-10.71,14.82-19.65,31.47-21.59,49.83,35.37-5.33,71.3-4.28,106.8-.57,33,3.45,65.8,9.11,98.56,14.52,17.71,2.92,35.54,6.25,53.54,6.23,17.81,0,35.11-4.34,52.07-9.39,30.41-9.05,60.7-21.9,84.6-43.27,18.75-16.78,33.4-38.83,38.68-63.49a3,3,0,0,1,0-1.29c.53-2.67,1-5.34,1.53-8a26.91,26.91,0,0,0,.26-2.69,3.76,3.76,0,0,1,.1-.57A2.89,2.89,0,0,1,759.79,385.65Z" transform="translate(-311.84 -237.45)"/><path class="cls-5" d="M761.26,377.68c0,.13,0,.15-.74,4-.31,1.66-.56,3-.73,4a3.2,3.2,0,0,0-.49,1.44c-.07.9-.16,1.8-.26,2.69-.5,2.68-1,5.35-1.53,8a3,3,0,0,0,0,1.29c-5.28,24.66-19.93,46.71-38.68,63.49-23.9,21.37-54.19,34.22-84.6,43.27-17,5-34.26,9.36-52.07,9.39-18,0-35.83-3.31-53.54-6.23-32.76-5.41-65.52-11.07-98.56-14.52-35.5-3.71-71.43-4.76-106.8.57,1.94-18.36,10.88-35,21.59-49.83,6.06-8.41,12.74-16.35,19.28-24.38,5.84-7.18,12.47-14.5,17-22.64s2.9-16.51,1.68-25.37c-1.49-10.81-2.7-21.66-3.13-32.57-.29-7.42-2.34-32.67,9-58a104.1,104.1,0,0,1,27.76-36.7,95.16,95.16,0,0,0,8.82,31.57c3.34,7,9.27,18.65,21.66,28.58a58.55,58.55,0,0,0,34,13c15.37.83,30.68-1.39,46.09-.19a146.43,146.43,0,0,1,42.23,9.35c17.64,6.95,24.37,14.7,39.29,25.23,15.89,11.22,41.57,29.33,71.69,33.34C717.77,391.4,760.27,374.11,761.26,377.68Zm-15.61,22.2a3,3,0,0,0-.23-1.95,2.55,2.55,0,0,0-3.26-1.79,2.44,2.44,0,0,0-1.17.4c-37.17,13.31-74.68,28.63-114.46,31.51-14.44,1.05-29,.56-43.47-.11-15.33-.71-30.55-1.93-45.56-5.24-18.76-4.14-36.87-10.14-56-12.37-3-.35-4,4.24-1.52,5.59a155.86,155.86,0,0,1,29.93,21.5c-15-4.91-31-6.45-46.84-6.2-18.46.29-41,.16-56.17,12.16-1.94,1.54-.4,5.46,2.12,5.12a124.24,124.24,0,0,1,82.41,17.9q-14.73.51-29.36,2.44c-11.1,1.49-22.71,3-32.09,9.63-2.89,2-1,5.95,2.31,5.49a159.62,159.62,0,0,1,42-.32c14.26,1.8,27.73,6,41.25,10.72,24.09,8.35,48.93,12.63,74.48,11.08,43.7-2.65,87.76-22.08,120.79-50.73,16.64-14.44,30.52-32.85,34.88-54.83" transform="translate(-311.84 -237.45)"/><path class="cls-5" d="M745.42,397.93a3,3,0,0,1,.23,1.95c-4.36,22-18.24,40.39-34.88,54.83-33,28.65-77.09,48.08-120.79,50.73-25.55,1.55-50.39-2.73-74.48-11.08-13.52-4.69-27-8.92-41.25-10.72a159.62,159.62,0,0,0-42,.32c-3.34.46-5.2-3.45-2.31-5.49,9.38-6.61,21-8.14,32.09-9.63q14.63-1.95,29.36-2.44A124.24,124.24,0,0,0,409,448.5c-2.52.34-4.06-3.58-2.12-5.12,15.18-12,37.71-11.87,56.17-12.16,15.88-.25,31.83,1.29,46.84,6.2a155.86,155.86,0,0,0-29.93-21.5c-2.45-1.35-1.52-5.94,1.52-5.59,19.17,2.23,37.28,8.23,56,12.37,15,3.31,30.23,4.53,45.56,5.24,14.44.67,29,1.16,43.47.11,39.78-2.88,77.29-18.2,114.46-31.51a2.44,2.44,0,0,1,1.17-.4,2.55,2.55,0,0,1,3.26,1.79m-6.88,5.85c-19.83,7.15-39.57,14.58-59.84,20.4-18.79,5.4-38.11,9.36-57.69,10.19-14.35.61-28.8.1-43.13-.69-15.26-.85-30.3-2.44-45.21-5.93-12.32-2.89-24.4-6.48-36.74-9a161.31,161.31,0,0,1,28.7,25,3,3,0,0,1-3.64,4.71c-17.41-8.8-36.89-11.36-56.21-11.21a262.62,262.62,0,0,0-28.18,1.71,75.52,75.52,0,0,0-13.13,2.52,129.16,129.16,0,0,1,78.87,25.19c2.27,1.68,1.69,5.57-1.51,5.59a302.59,302.59,0,0,0-36.11,2.28c-4.72.59-9.58,1.18-14.32,2.17,22.09-.34,43.5,3.85,64.87,11.28,24.3,8.45,48.9,13.06,74.71,11.5,24.23-1.46,47.36-8.24,69.15-18.76,32.65-15.77,69.2-40.06,79.41-76.9" transform="translate(-311.84 -237.45)"/><path class="cls-7" d="M678.7,424.18c20.27-5.82,40-13.25,59.84-20.4-10.21,36.84-46.76,61.13-79.41,76.9C637.34,491.2,614.21,498,590,499.44c-25.81,1.56-50.41-3.05-74.71-11.5-21.37-7.43-42.78-11.62-64.87-11.28,4.74-1,9.6-1.58,14.32-2.17a302.59,302.59,0,0,1,36.11-2.28c3.2,0,3.78-3.91,1.51-5.59a129.16,129.16,0,0,0-78.87-25.19,75.52,75.52,0,0,1,13.13-2.52,262.62,262.62,0,0,1,28.18-1.71c19.32-.15,38.8,2.41,56.21,11.21a3,3,0,0,0,3.64-4.71,161.31,161.31,0,0,0-28.7-25c12.34,2.55,24.42,6.14,36.74,9,14.91,3.49,30,5.08,45.21,5.93,14.33.79,28.78,1.3,43.13.69,19.58-.83,38.9-4.79,57.69-10.19" transform="translate(-311.84 -237.45)"/><path class="cls-7" d="M726.43,495.9c-10.1,26.68-21.12,53.37-39.62,75.44a325.25,325.25,0,0,1-32.12,32.82c-11.6,10.42-24.37,19.67-39.05,25.23-3.56,1.35-2.13,6.74,1.67,5.77a206.64,206.64,0,0,0,71.73-34,168.25,168.25,0,0,1-100.83,71.92c-3,.74-2.59,4.92.07,5.79,17.31,5.69,36.28,1.88,53.35-3a191.33,191.33,0,0,0,39.63-16.3c-15.12,20.63-39.17,34.33-62.07,44.55a251.71,251.71,0,0,1-89.76,21.37,248.41,248.41,0,0,1-53-3c-2.81-.47-5.18,2.81-2.87,5,11.34,11,26.72,15.22,41.77,18.37a332.14,332.14,0,0,0,51.51,6.56,337.15,337.15,0,0,0,103.9-11.23A331.81,331.81,0,0,0,712,727.07a219.14,219.14,0,0,1-27.42,20.7C636,778.7,575.86,790.5,519,782.14a233.16,233.16,0,0,1-29.49-6.33,2.35,2.35,0,0,0-1.57-2.14,226.06,226.06,0,0,1-99.74-85.41c6.1,2.08,12.66,2.79,19.24,3.44q20.44,2,41,2.8c25.33,1,51.33.23,75.06-9.65,2.88-1.2,2.8-6-.87-5.88-44.14,1.89-87.18-21.86-109.81-59.46C459.28,645.14,516,650.6,566.5,633.91c3.06-1,2.66-6.19-.86-5.88a139.31,139.31,0,0,1-74.72-14.17c30.48,0,61.52,2.74,91-6.16a137.67,137.67,0,0,0,65.47-43.62A136.19,136.19,0,0,0,670,525.33a2.62,2.62,0,0,0,.19-1,203.46,203.46,0,0,0,56.2-28.44" transform="translate(-311.84 -237.45)"/><path class="cls-5" d="M663.16,526.48a131.27,131.27,0,0,1-46.55,57.79c-24,16.68-51.39,23.08-80.33,23.84-18.93.49-37.84-.67-56.76-.11a3,3,0,0,0-1.46,5.6,144.9,144.9,0,0,0,63.61,20.53,189,189,0,0,1-135.18-25.29c-2.76-1.74-5.26,1.65-4.06,4.15,19,39.66,59.47,67.07,102.92,71.45-17.35,4.26-35.48,4.75-53.41,4.19q-18-.57-36-2.13c-11-1-24.5-.8-33.69-7.9-2.57-2-6.48.52-4.68,3.68a231.62,231.62,0,0,0,77.57,80.78,231.36,231.36,0,0,1-79.86-61.28c-35.51-42.35-56.73-97.11-57.47-152.48-.07-6.07.12-12.14.52-18.19,58.34-12.52,121-3.78,173.1,25.62a224.19,224.19,0,0,1,41.93,30.54c2.11,1.94,6,0,5-3a86,86,0,0,0-41.63-48.63,245.37,245.37,0,0,1,115.93,39.57c2.61,1.72,5.46-1.67,4.05-4.14a108.62,108.62,0,0,0-30.84-34.45c26.07,0,52.2-3,77.3-10.16" transform="translate(-311.84 -237.45)"/></g></g><path class="cls-7" d="M409.87,260.88c-5.29,10.65-11,25.39-10.29,37.25s3.48,23.5,6.23,35.07c1.16,4.85,2.42,9.91,5.72,13.65A34.07,34.07,0,0,1,437,329.42c-19.36-14.57-26.82-44.27-26.36-68.49" transform="translate(-311.84 -237.45)"/><path class="cls-7" d="M404,259.73c-6.74,13.77-11.59,28-10,43.52a205.76,205.76,0,0,0,4.77,25.82c1.63,6.92,2.94,13.91,7.49,19.59a3,3,0,0,0,4.74-.32,32,32,0,0,1,23.55-16.17c2.74-.4,2.93-4,1-5.43-19.32-15-25.33-42.56-25-65.81.05-3.85-5.94-4.23-6-.36-.33,25.56,6.55,54.76,27.69,71.16.35-1.81.69-3.62,1-5.43A37.59,37.59,0,0,0,406,345l4.74-.32c-4.32-5.39-5.24-13.05-6.75-19.6A190.06,190.06,0,0,1,399.9,302c-1.45-14.27,3.62-27.7,9.81-40.33,1.7-3.46-4-5.36-5.68-1.94" transform="translate(-311.84 -237.45)"/><path class="cls-7" d="M548.65,379.46c8,5,22.06,5.64,29.9,0,3.11-2.24.12-7.44-3-5.18-6.19,4.45-17.48,4-23.86,0-3.28-2-6.3,3.14-3,5.18" transform="translate(-311.84 -237.45)"/></g></svg>