<svg xmlns="http://www.w3.org/2000/svg" viewBox="0 0 132.89 169.28"><defs><style>.cls-1{fill:#ffffff;}</style></defs><title>logo-ge</title><g id="Layer_2" data-name="Layer 2"><g id="Layer_1-2" data-name="Layer 1"><g id="Layer_1-2-2" data-name="Layer 1-2"><path class="cls-1" d="M8.41,105.77c0,2-1.5,3.69-4.25,3.69S0,107.91,0,106a3.74,3.74,0,0,1,.5-1.87l2.36.65a3.39,3.39,0,0,0-.22,1.13,1.42,1.42,0,0,0,1.2,1.6,1.38,1.38,0,0,0,.29,0c1,0,1.43-.73,1.43-1.87s-.6-1.95-1.67-1.95h-.6l.31-1.87h.16c.83,0,1.35-.4,1.35-1.45a4.82,4.82,0,0,0-.57-2.22H7.06a4,4,0,0,1,.81,2.22c0,1.24-.72,2-2.19,2.4A2.91,2.91,0,0,1,8.41,105.77Z"/><path class="cls-1" d="M25.12,107.59a8,8,0,0,0-3.66.89l-.69-1.73a6.26,6.26,0,0,1,2.22-.43c-1.83-.77-4-1.83-4-4.67,0-2.62,1.39-3.77,3.41-3.77,1.51,0,2.38.61,2.67,1.82a2.32,2.32,0,0,1,4.54,0c.21-1.21,1.14-1.78,2.56-1.78,2.07,0,3.57,1.2,3.57,3.89a6.76,6.76,0,0,1-1.32,4l-2.33-1a5.07,5.07,0,0,0,.81-2.95c0-1.57-.41-2-1.07-2s-.95.37-.95,1.18v2.39H28.29v-2.44c0-.81-.39-1.17-.95-1.17s-1,.36-1,1.17v2.44H23.81v-2.45c0-.9-.37-1.16-.89-1.16-.75,0-1.07.67-1.07,1.78,0,2.5,1.83,3.3,4.28,3.91,2.75.67,4.71,1.6,5,3.66h-2.8C27.89,108.13,26.76,107.59,25.12,107.59Z"/><path class="cls-1" d="M50.89,97.88c2.67,0,4.38,1.5,4.38,5.12a15.12,15.12,0,0,1-1.08,6.13H51.6a18.12,18.12,0,0,0,.89-6.07c0-2.31-.48-3.29-1.62-3.29s-1.63.9-1.63,3.29a17.65,17.65,0,0,0,.95,6.07h-2.6A15.5,15.5,0,0,1,46.47,103C46.49,99.49,48.06,97.88,50.89,97.88Z"/><path class="cls-1" d="M74.87,105.16c0,2.5-1.48,4.25-4.35,4.25s-4.23-1.58-4.23-4.11v-4.17a2.94,2.94,0,0,1,3.27-3.19c1.07,0,1.83.2,2.61.2a5.69,5.69,0,0,0,1.53-.2l.3,1.85a4,4,0,0,1-1.63.3c-.79,0-1.34-.22-2.23-.22s-1.16.31-1.16,1V102a3.62,3.62,0,0,1,2.29-.71,3.57,3.57,0,0,1,3.62,3.5C74.89,104.92,74.88,105,74.87,105.16Zm-2.8.1c0-1.47-.51-2.14-1.52-2.14a2.41,2.41,0,0,0-1.57.59v1.59c0,1.28.37,2.21,1.54,2.21C71.51,107.51,72.07,106.79,72.07,105.26Z"/><path class="cls-1" d="M90.06,97.88c2.68,0,4.39,1.5,4.39,5.12a15.3,15.3,0,0,1-1.09,6.13H90.78a18.65,18.65,0,0,0,.89-6.07c0-2.31-.47-3.29-1.61-3.29s-1.63.9-1.63,3.29a17.63,17.63,0,0,0,.89,6.07H86.73A15.5,15.5,0,0,1,85.61,103C85.66,99.49,87.23,97.88,90.06,97.88Z"/><path class="cls-1" d="M113.38,105.77c0,2-1.5,3.64-4.23,3.64s-4.14-1.55-4.14-3.47a3.91,3.91,0,0,1,.49-1.83l2.37.65a3.1,3.1,0,0,0-.22,1.16,1.41,1.41,0,0,0,1.19,1.59,1.67,1.67,0,0,0,.31,0c1,0,1.41-.74,1.41-1.88s-.59-2-1.66-2h-.59l.31-1.87h.15c.89,0,1.35-.39,1.35-1.44a4.65,4.65,0,0,0-.58-2.25H112a3.84,3.84,0,0,1,.81,2.22c0,1.24-.73,2-2.2,2.4A2.91,2.91,0,0,1,113.38,105.77Z"/><path class="cls-1" d="M132.71,105.42c0,2.47-1.78,4-4.45,4s-4.35-1.56-4.35-3.92a4.82,4.82,0,0,1,.72-2.51l2.33.78a4.46,4.46,0,0,0-.35,1.73c0,1.2.5,2,1.65,2s1.58-.78,1.58-1.92c0-3-3-3.56-3-7.44h2.76C129.69,100.93,132.71,102.06,132.71,105.42Z"/><path class="cls-1" d="M.19,165.91h1.3A3,3,0,0,0,3.68,165a3,3,0,0,0,.89-2.22,2.84,2.84,0,0,0-.83-2.08,3.74,3.74,0,0,0-2.1-1.08v-2.83L9,149l-.95-8.09a2,2,0,0,0-.55-1.28,1.55,1.55,0,0,0-2.19,0l0,0a1.69,1.69,0,0,0-.46,1.19,8.62,8.62,0,0,0,.46,2.56H1.92a5.76,5.76,0,0,1-.58-2.68,4.63,4.63,0,0,1,1.43-3.56,5.16,5.16,0,0,1,3.68-1.37,4.68,4.68,0,0,1,3.46,1.41,5.94,5.94,0,0,1,1.62,3.67l.65,5.64,3-3.18a12.87,12.87,0,0,0,1-1.12,1.7,1.7,0,0,0,.28-1,1.94,1.94,0,0,0-.58-1.46,1.88,1.88,0,0,0-1.39-.57h-.6V136l1-.1A5.08,5.08,0,0,1,19.93,141a5.63,5.63,0,0,1-1.78,3.93l-5.44,5.71,1.65,13.63a2.12,2.12,0,0,0,.49,1.23,1.42,1.42,0,0,0,1.07.46,1.46,1.46,0,0,0,1.12-.44,1.66,1.66,0,0,0,.48-1.11,1.69,1.69,0,0,0,0-.55l-.23-2.24h3.39a17.92,17.92,0,0,1,.36,2.92,4.57,4.57,0,0,1-1.41,3.34,4.74,4.74,0,0,1-3.48,1.42,5.06,5.06,0,0,1-3.47-1.31A4.81,4.81,0,0,1,11,164.81L9.56,153.34l-4.38,4.52V158a6,6,0,0,1,2.92,5.15,5.9,5.9,0,0,1-.82,3,6.16,6.16,0,0,1-2.23,2.22,5.82,5.82,0,0,1-3,.83,7.65,7.65,0,0,1-.95-.1,4,4,0,0,1-.89-.2Z"/><path class="cls-1" d="M29.9,154.62v9.6a1.64,1.64,0,0,0,1.6,1.69h.09a1.7,1.7,0,0,0,1.23-.48,1.61,1.61,0,0,0,.51-1.21V140.81a1.59,1.59,0,0,0-.48-1.16,1.61,1.61,0,0,0-1.17-.48,1.53,1.53,0,0,0-1.14.48,1.61,1.61,0,0,0-.45,1.16v3.62H26.52V141a5.17,5.17,0,1,1,10.34,0h0v23a5.24,5.24,0,0,1-5.21,5.26h0a5.13,5.13,0,0,1-3.7-1.53A5,5,0,0,1,26.34,164v-9.37Z"/><path class="cls-1" d="M43.29,151.23a7.71,7.71,0,0,1,.78-3.56,10.75,10.75,0,0,1,2.74-3.15L52,140.18a11.87,11.87,0,0,0,1.78-1.69,2.53,2.53,0,0,0,.51-1.65v-.5h3.31V137a5.16,5.16,0,0,1-.6,2.67,10.4,10.4,0,0,1-2.24,2.44l-4.45,3.75c-1.07.9-1.84,1.56-2.31,2a4.41,4.41,0,0,0-1,1.32,3.69,3.69,0,0,0-.27,1.54v.36h.08a2.7,2.7,0,0,1,.9-.71,2.92,2.92,0,0,1,1.3-.3,3.08,3.08,0,0,1,1.79.53,2.83,2.83,0,0,1,1.07,1.43H52a3.6,3.6,0,0,1,1.49-1.43,4.47,4.47,0,0,1,2.12-.53A4.37,4.37,0,0,1,60,154.43v14.85H56.49V154.9a1.56,1.56,0,0,0-2.68-1.1,1.5,1.5,0,0,0-.45,1.1v6.44H50V154.9a1.5,1.5,0,0,0-.45-1.1,1.47,1.47,0,0,0-1.1-.46,1.4,1.4,0,0,0-1.05.46,1.46,1.46,0,0,0-.46,1.1v14.38H43.34Z"/><path class="cls-1" d="M69.57,154.62v9.68a1.53,1.53,0,0,0,.48,1.15,1.66,1.66,0,0,0,1.17.46,1.56,1.56,0,0,0,1.6-1.53.11.11,0,0,0,0-.08V147.77a12.9,12.9,0,0,0-.14-2.24A4.34,4.34,0,0,0,72,144l-2.34-3.34a7.18,7.18,0,0,1-1-1.67,4.3,4.3,0,0,1-.29-1.62v-1.06h3.48v.5a4,4,0,0,0,.23,1.5,8.53,8.53,0,0,0,1.1,1.78L75,142.73A5.88,5.88,0,0,1,76.35,147v17.1a5.17,5.17,0,1,1-10.33,0v-9.46Z"/><path class="cls-1" d="M82.64,151.23a7.6,7.6,0,0,1,.79-3.56,10.48,10.48,0,0,1,2.7-3.15l5.21-4.34a11.87,11.87,0,0,0,1.78-1.69,2.65,2.65,0,0,0,.51-1.65v-.5h3.29V137a5.25,5.25,0,0,1-.59,2.67,10.42,10.42,0,0,1-2.19,2.4l-4.45,3.75c-1.06.89-1.84,1.56-2.31,2a4.78,4.78,0,0,0-1,1.33,3.64,3.64,0,0,0-.27,1.53v.37h.09a2.6,2.6,0,0,1,.89-.72,2.79,2.79,0,0,1,1.31-.29,3,3,0,0,1,1.78.53A2.86,2.86,0,0,1,91.28,152h.09a3.52,3.52,0,0,1,1.48-1.43,4.5,4.5,0,0,1,2.12-.53,4.37,4.37,0,0,1,4.4,4.34v14.86H95.8V154.9a1.56,1.56,0,0,0-3.11,0v6.44H89.31V154.9a1.51,1.51,0,0,0-.46-1.1,1.45,1.45,0,0,0-1.09-.46,1.39,1.39,0,0,0-1.05.46,1.48,1.48,0,0,0-.49,1.1v14.35H82.65Z"/><path class="cls-1" d="M107.38,167.73a4.91,4.91,0,0,1-1.51-3.65V136.34h3.56v28a1.53,1.53,0,0,0,.48,1.15,1.62,1.62,0,0,0,1.16.46,1.55,1.55,0,0,0,1.61-1.5V152.79h3.56v11.29a5.16,5.16,0,0,1-8.82,3.65Z"/><path class="cls-1" d="M122.23,141.13a5.26,5.26,0,1,1,10.51,0v28.14h-3.56V140.91a1.77,1.77,0,0,0-.48-1.24,1.64,1.64,0,0,0-1.22-.5,1.71,1.71,0,0,0-1.73,1.7v28.4h-3.52Z"/><rect class="cls-1" y="120.61" width="132.89" height="3.79"/></g><path class="cls-1" d="M67.28,41.21A14.71,14.71,0,0,0,55,34.55H44.79V23.11a59.71,59.71,0,0,1,16.71,8c13,9.06,15.77,19.3,15.77,26.29A16.2,16.2,0,0,1,61.08,73.56c-7.15,0-13.91-4.66-16-11.11H38.16c2.3,10.16,12.06,17.73,22.91,17.73a22.8,22.8,0,0,0,22.82-22.8h0c0-24.12-24.63-37.53-39-41.1a29.77,29.77,0,0,0-6.76-1v25.9Z"/><path class="cls-1" d="M79.28,15.31V0H53.56V13.93A70.49,70.49,0,0,1,60.16,17V6.68H72.68V22H88.16V34.51H80.82a39.7,39.7,0,0,1,3.71,6.69H94.76V15.31Z"/></g></g></svg>